<?xml version="1.0"?>
<svg xmlns="http://www.w3.org/2000/svg" xmlns:xlink="http://www.w3.org/1999/xlink" xmlns:svgjs="http://svgjs.com/svgjs" version="1.1" width="512" height="512" x="0" y="0" viewBox="0 0 510.5 510.5" style="enable-background:new 0 0 512 512" xml:space="preserve" class=""><g><g xmlns="http://www.w3.org/2000/svg"><path d="m300.25 165.127h15v15h-15z" fill="#f47738" data-original="#000000" style=""/><path d="m165.25 104.333h15v15h-15z" fill="#f47738" data-original="#000000" style=""/><path d="m195.25 104.333h15v15h-15z" fill="#f47738" data-original="#000000" style=""/><path d="m332.254 377.509c26.555-22.029 43.497-55.263 43.497-92.381v-105.001h59.332v-45.793h-58.51l13.999-134.334h-271.414l15.666 134.334h-59.074v45.793h59.999v105.001c0 36.99 16.827 70.121 43.224 92.151l-141.223 44.729v88.492h15v-77.508l73.21-23.188-13.21 84.111v16.585h15v-15.415l14.189-90.342 30.811-9.759v115.516h15v-23.161l54.537-22.341h26.959l54.505 22.341v23.161h15v-115.199l29.284 9.275 14.215 90.509v15.415h15v-16.585l-13.236-84.277 73.736 23.354v77.508h15v-88.492zm41.674-362.509-6.182 59.319h-224.819l-6.918-59.319zm-7.745 74.319-4.691 45.015h-211.566l-5.25-45.015zm-132.932 363.229-45.501 19.455v-45.331h.156l45.345 7.228zm-45.501-40.876v-21.439l6.547-2.073c3.588 2.148 7.298 4.113 11.115 5.885l17.832 23.07zm75.499 38.326h-14.998v-14.998h14.998zm3.805-29.998h-22.621l-13.493-17.457c8.008 1.69 16.306 2.586 24.81 2.586 8.467 0 16.73-.887 24.706-2.563zm56.697 51.503-45.502-19.001v-18.58l45.502-7.083zm0-59.831-35.627 5.533 17.715-23.043c3.782-1.745 7.458-3.681 11.017-5.795l6.896 2.184v21.121zm-68.001-21.543c-57.897 0-105-47.103-105-105.001v-105.001h135.125v-15h-195.125v-15.793h329.333v15.793h-88.832v15h29.5v105.001c0 57.898-47.104 105.001-105.001 105.001z" fill="#f47738" data-original="#000000" style=""/></g></g></svg>
