<svg xmlns="http://www.w3.org/2000/svg" width="152.772" height="136.923" viewBox="0 0 152.772 136.923"><defs><style>.a{opacity:0.29;}.b{fill:#ff8659;}.c{fill:#ff6326;}.d{fill:#fff16b;}.e{fill:#ffb454;}.f{fill:#ff7038;}.g{fill:#ff405c;}.h{fill:#00429b;}.i{fill:#002659;}</style></defs><g class="a" transform="translate(0 68.461) rotate(-45)"><path class="b" d="M240.022,156.945H193.6a11.618,11.618,0,0,1-11.6-11.6V90.483a3.166,3.166,0,0,1,.633-1.9l18.989-25.319A3.165,3.165,0,0,1,204.154,62h25.319A3.165,3.165,0,0,1,232,63.266l18.989,25.319a3.166,3.166,0,0,1,.633,1.9V145.34A11.618,11.618,0,0,1,240.022,156.945Z" transform="translate(-143.601 -48.919)"/><path class="c" d="M381.18,88.585,362.191,63.266A3.165,3.165,0,0,0,359.659,62H347v94.945h23.209a11.618,11.618,0,0,0,11.6-11.6V90.483A3.166,3.166,0,0,0,381.18,88.585Z" transform="translate(-273.788 -48.919)"/><path class="d" d="M36.215,93.427,3.393,60.6a11.617,11.617,0,0,1,0-16.411L42.182,5.4a3.166,3.166,0,0,1,1.79-.9L75.3.033a3.164,3.164,0,0,1,2.685.9l17.9,17.9a3.165,3.165,0,0,1,.9,2.685l-4.476,31.33a3.164,3.164,0,0,1-.9,1.79l-38.79,38.79a11.618,11.618,0,0,1-16.411,0Z" transform="translate(0 -0.001)"/><path class="e" d="M166.372,89.789l4.476-31.33a3.165,3.165,0,0,0-.9-2.685L161,46.822,93.865,113.958l16.411,16.411a11.617,11.617,0,0,0,16.411,0l38.79-38.79a3.166,3.166,0,0,0,.9-1.79Z" transform="translate(-74.061 -36.943)"/><path class="f" d="M175.25,163.3a3.164,3.164,0,0,1-.766-3.241L189.4,115.3a3.165,3.165,0,1,1,6,2l-14.919,44.757a3.166,3.166,0,0,1-5.239,1.239Z" transform="translate(-137.542 -89.264)"/><path class="g" d="M287.815,191.982a9.5,9.5,0,1,0,0,13.433A9.509,9.509,0,0,0,287.815,191.982Zm-4.478,8.956a3.166,3.166,0,1,1,0-4.478A3.17,3.17,0,0,1,283.337,200.938Z" transform="translate(-214.299 -149.284)"/><path class="f" d="M103.968,191.982a9.5,9.5,0,1,0,0,13.433A9.509,9.509,0,0,0,103.968,191.982Zm-4.478,8.956a3.166,3.166,0,1,1,0-4.478A3.17,3.17,0,0,1,99.49,200.938Z" transform="translate(-69.242 -149.284)"/><path class="g" d="M180.488,238.87l9.461-28.383-10.008,10.008-5.458,16.374a3.165,3.165,0,0,0,6,2Z" transform="translate(-137.541 -166.077)"/><g transform="translate(73.513 0)"><path class="h" d="M370.8.927a3.165,3.165,0,0,0-4.476,0l-17.9,17.9,4.476,4.476L370.8,5.4a3.164,3.164,0,0,0,0-4.476Z" transform="translate(-348.424 0)"/><path class="i" d="M379.171,8.869a3.165,3.165,0,0,0,0-4.476L359.03,24.534l2.238,2.238Z" transform="translate(-356.792 -3.466)"/></g><g transform="translate(68.11 13.427)"><path class="b" d="M334.934,78.92a3.154,3.154,0,0,1-2.238-.927l-8.952-8.952a3.165,3.165,0,1,1,4.476-4.476l8.952,8.952a3.165,3.165,0,0,1-2.238,5.4Z" transform="translate(-322.818 -63.639)"/><path class="c" d="M357.376,93.722,352.9,89.246l-4.476,4.476L352.9,98.2a3.165,3.165,0,0,0,4.476-4.476Z" transform="translate(-343.022 -83.843)"/></g></g></svg>