<svg xmlns="http://www.w3.org/2000/svg" width="481.798" height="218.795" viewBox="0 0 481.798 218.795"><defs><style>.a{fill:#6c63ff;}.b{fill:#3f3d56;}.c{fill:#ffb8b8;}.d{fill:#d0cde1;}.e{fill:#2f2e41;}.f{fill:none;stroke:#d0cde1;stroke-miterlimit:10;stroke-width:2px;}.g{fill:#a0616a;}</style></defs><g transform="translate(-0.001 0)"><path class="a" d="M568.51,556.27c7.2,7.727,7.573,19.085,7.573,19.085s-11.3-1.171-18.5-8.9-7.573-19.085-7.573-19.085S561.309,548.543,568.51,556.27Z" transform="translate(-332.685 -374.372)"/><path class="a" d="M613.189,570.778c-7.727,7.2-19.085,7.573-19.085,7.573s1.171-11.3,8.9-18.5,19.085-7.573,19.085-7.573S620.916,563.577,613.189,570.778Z" transform="translate(-354.694 -376.818)"/><path class="b" d="M590.99,616.534H562.568a2.907,2.907,0,0,1-2.614-1.635l-6.188-12.72A2.907,2.907,0,0,1,556.38,598h40.8a2.907,2.907,0,0,1,2.614,4.179L593.6,614.9a2.907,2.907,0,0,1-2.614,1.635Z" transform="translate(-334.416 -399.639)"/><circle class="c" cx="23.665" cy="23.665" r="23.665" transform="translate(360.547 14.439)"/><path class="c" d="M844.855,301.692s4.458,33.611-2.4,37.383,40.813,4.116,40.813,4.116-10.632-29.152-5.83-38.069Z" transform="translate(-478.306 -251.755)"/><path class="d" d="M886.458,367.243,882.493,385.3l-8.383,38.2-.251,2.092L870.966,449.8l-1.924,16.087-1.29,10.806c-7.846,4.032-13.532,6.816-13.532,6.816s-.489-2.452-1.278-5.59c-5.506,1.651-15.695,4.39-24.329,4.937,3.144,3.5,4.589,6.8,2.629,9.226-5.915,7.324-30.334-8.02-38.875-13.741a23.119,23.119,0,0,0-.225,4.138l-6.536-5.027.647-11.566,1.091-19.569,1.371-24.541a25.778,25.778,0,0,1-1.085-3.228c-2-7.118-4.431-21.333-6.295-33.253-1.5-9.593-2.626-17.7-2.864-19.425-.032-.225-.048-.341-.048-.341L814.6,349.543c2.571,5.963,14.578,7.756,14.578,7.756a40.27,40.27,0,0,0,17.745-5.931Z" transform="translate(-446.685 -275.637)"/><path class="c" d="M892.005,592.322s-1.532.525-4.023,1.268c-5.506,1.651-15.695,4.39-24.329,4.937-7.434.476-13.716-.669-14.865-5.519a5.125,5.125,0,0,1,1.728-5.21c4.544-4.212,16.412-5.722,25.825-6.24,2.658-.145,5.117-.212,7.164-.238,3.476-.045,5.754.026,5.754.026l.055.212Z" transform="translate(-481.727 -391.307)"/><path class="e" d="M837.638,217.72l-4.425-1.771s9.252-10.186,22.124-9.3l-3.62-3.986s8.849-3.543,16.894,5.757c4.229,4.889,9.122,10.635,12.172,17.108h4.738l-1.978,4.355,6.922,4.355-7.1-.782a24.333,24.333,0,0,1,.193,7.223,9.345,9.345,0,0,1-3.422,6.114h0s-5.487-11.359-5.487-13.13v4.429s-4.425-3.986-4.425-6.643l-2.413,3.1-1.207-4.871-14.883,4.871,2.413-3.986-9.252,1.329,3.62-4.871s-10.458,5.757-10.861,10.628a23.388,23.388,0,0,1-3.463,9.487S825.973,224.362,837.638,217.72Z" transform="translate(-473.113 -202)"/><path class="d" d="M980.523,467.876c-2.41,2.613-8.383,6.549-15.624,10.81-2.694,1.583-5.561,3.215-8.486,4.837-6.98,3.871-14.288,7.707-20.319,10.806-7.846,4.032-13.532,6.816-13.532,6.816s-.489-2.452-1.278-5.59c-1.056-4.2-2.645-9.629-4.3-12.033-.058-.084-.116-.161-.174-.238-.483-.634-.969-1-1.448-1l23.95-14.845,10.349-6.417-7.456-17.8-9.352-22.327,5.645-17.96,5.674-18.054H954.8s3.521,7.685,8.023,18.4c.673,1.6,1.368,3.273,2.076,5C974.162,430.8,985.708,462.261,980.523,467.876Z" transform="translate(-515.029 -293.272)"/><path class="c" d="M842.179,604.718c-5.915,7.324-30.334-8.02-38.875-13.741-1.86-1.245-2.967-2.034-2.967-2.034l7.814-10.42,2.475-3.3s2.214,1.175,5.487,3.086c.119.071.238.142.36.212,2.822,1.657,6.365,3.823,9.941,6.24,4.933,3.337,9.921,7.144,13.136,10.729C842.694,599,844.139,602.289,842.179,604.718Z" transform="translate(-457.623 -388.272)"/><path class="d" d="M775.563,481.945a15.375,15.375,0,0,0-2.607.212c-7.4,1.271-9.58,7.968-10.2,12.454a23.113,23.113,0,0,0-.225,4.138l-6.536-5.027-2.381-1.831a43.4,43.4,0,0,1-15.267-9.735,76.738,76.738,0,0,1-10.282-12.194,107.519,107.519,0,0,1-7.955-13.645,10.035,10.035,0,0,1-.138-8.512l8.094-18.038,11.83-26.363q.13-.941.286-1.841c2.346-13.452,8.631-19.425,8.631-19.425h4.8l3.212,19.425,3.99,24.133-2.8,9.12-6.462,21.063,6.176,6.707Z" transform="translate(-417.074 -291.907)"/><path class="a" d="M831.873,457.477l4.1,4.789c1.525-.291,3.118-.632,4.758-1.016l-1.179-3.773,2.883,3.363c17.377-4.274,38.916-12.583,38.916-12.583s-23.253,1.705-40.615-2.088A16.521,16.521,0,0,0,822,455.5c-1.832,4.187-1.544,7.814,4.954,7.814a42.92,42.92,0,0,0,6.55-.616Z" transform="translate(-467.949 -323.666)"/><path class="b" d="M877.693,620.874v1.953a4.292,4.292,0,0,1-.293,1.567,4.414,4.414,0,0,1-.312.644,4.324,4.324,0,0,1-3.717,2.111H729.665a4.324,4.324,0,0,1-3.717-2.111,4.4,4.4,0,0,1-.312-.644,4.292,4.292,0,0,1-.293-1.567v-1.953a4.321,4.321,0,0,1,4.322-4.322h8.283v-.911a.18.18,0,0,1,.18-.18h4.322a.18.18,0,0,1,.18.18v.911h2.7v-.911a.18.18,0,0,1,.18-.18h4.322a.18.18,0,0,1,.18.18v.911h2.7v-.911a.18.18,0,0,1,.18-.18h4.322a.18.18,0,0,1,.18.18v.911h2.7v-.911a.18.18,0,0,1,.18-.18H764.6a.18.18,0,0,1,.18.18v.911h2.7v-.911a.18.18,0,0,1,.18-.18h4.322a.18.18,0,0,1,.18.18v.911h2.7v-.911a.18.18,0,0,1,.18-.18h4.322a.18.18,0,0,1,.18.18v.911h2.7v-.911a.18.18,0,0,1,.18-.18h33.855a.18.18,0,0,1,.18.18v.911h2.7v-.911a.18.18,0,0,1,.18-.18h4.322a.182.182,0,0,1,.18.18v.911h2.7v-.911a.18.18,0,0,1,.18-.18h4.322a.18.18,0,0,1,.18.18v.911h2.7v-.911a.18.18,0,0,1,.18-.18h4.322a.18.18,0,0,1,.18.18v.911h2.7v-.911a.18.18,0,0,1,.18-.18h4.322a.179.179,0,0,1,.177.18v.911h2.7v-.911a.18.18,0,0,1,.18-.18H853.2a.18.18,0,0,1,.18.18v.911h2.7v-.911a.18.18,0,0,1,.18-.18h4.322a.18.18,0,0,1,.18.18v.911H873.37A4.321,4.321,0,0,1,877.693,620.874Z" transform="translate(-420.194 -408.354)"/><path class="b" d="M871.622,460.937H818.057v-1.1H793.77v1.1H739.986a3.623,3.623,0,0,0-3.623,3.623V537.9a3.623,3.623,0,0,0,3.623,3.623H871.621a3.623,3.623,0,0,0,3.623-3.623V464.56A3.623,3.623,0,0,0,871.622,460.937Z" transform="translate(-425.694 -330.682)"/><circle class="f" cx="8.045" cy="8.045" r="8.045" transform="translate(372.169 147.817)"/><circle class="d" cx="8.045" cy="8.045" r="8.045" transform="translate(369.595 150.713)"/><circle class="e" cx="11.713" cy="11.713" r="11.713" transform="translate(129.7 71.291)"/><path class="e" d="M395.869,343.223a11.714,11.714,0,0,1,10.311,17.271,11.71,11.71,0,1,0-19.455-12.867A11.684,11.684,0,0,1,395.869,343.223Z" transform="translate(-251.193 -271.61)"/><circle class="e" cx="34.406" cy="34.406" r="34.406" transform="translate(85.121 14.167)"/><path class="e" d="M290.467,243.3a34.4,34.4,0,0,1,47.682-3.608c-.281-.267-.56-.537-.852-.8a34.406,34.406,0,1,0-45.719,51.428c.292.26.593.5.891.753a34.4,34.4,0,0,1-2-47.776Z" transform="translate(-197.944 -216.078)"/><circle class="g" cx="22.16" cy="22.16" r="22.16" transform="translate(97.075 38.368)"/><path class="g" d="M320.545,336.8s2.916,26.825-1.749,29.74,26.825,7,26.825,7-4.665-29.157,7-36.738Z" transform="translate(-217.055 -269.28)"/><path class="d" d="M304.266,378.587s8.683-4.055-3.822-2.611-23.3-4.1-23.3-4.1-3.789-3.79-4.372.292S274.526,383.835,261.7,385s-24.492-2.333-29.157,6.415-2.333,46.652-2.333,46.652,8.747,31.49,15.745,36.155,68.228-1.749,68.228-1.749l17.494-31.49V404.245s-2.333-12.829-18.661-9.33c0,0-10.5-2.333-9.914-7.581S304.266,378.587,304.266,378.587Z" transform="translate(-172.786 -285.986)"/><path class="e" d="M264.535,580.319c.36-1.57.6-2.459.6-2.459l-.187-1.278-1.921-13.046-.808-5.5c7-2.916,8.747-16.329,8.747-16.329l.264-.158,1.194-.714v0l4.287-2.571.087-.051,1.731,1.152,3.517,2.346a41.361,41.361,0,0,0,32.571,7.463,35.856,35.856,0,0,0,7.666-2.214l8.483-2.829.264-.087.261.039,4.975.753.09.016.412.061-1.152,7.965-1.67,11.576c4.412,2.336,8.335,6.726,11.765,12.135q1.139,1.8,2.208,3.736c.927,1.673,1.812,3.414,2.655,5.2.1.212.2.428.3.644.325.7.647,1.4.959,2.111H262.99c.116-.711.232-1.39.344-2.044a.493.493,0,0,0,.013-.068c.042-.219.08-.431.116-.644C263.856,583.392,264.236,581.618,264.535,580.319Z" transform="translate(-189.054 -369.797)"/><path class="e" d="M259.892,396.957a44.743,44.743,0,0,1,4.082,26.242c-2.333,14.578,7,50.734,7,50.734l7-1.749s-4.665-30.324-3.5-37.321,1.166-34.406-4.665-37.9S259.892,396.957,259.892,396.957Z" transform="translate(-187.892 -298.525)"/><path class="e" d="M395.278,419.342l2.451,64.564,4.665,2.916s6.706-70.852,3.207-70.852h-7.119a3.209,3.209,0,0,0-3.2,3.373Z" transform="translate(-255.46 -308.79)"/><circle class="a" cx="2.916" cy="2.916" r="2.916" transform="translate(83.371 168.118)"/><circle class="a" cx="2.916" cy="2.916" r="2.916" transform="translate(141.686 171.034)"/><path class="e" d="M200.2,65.536V87.7h5.132l6.531-7-.875,7h22.685l-1.4-7,2.8,7h3.615V65.536Z" transform="translate(-99.917 -32.708)"/><ellipse class="g" cx="1.749" cy="3.207" rx="1.749" ry="3.207" transform="translate(95.034 52.655)"/><ellipse class="g" cx="1.749" cy="3.207" rx="1.749" ry="3.207" transform="translate(139.936 52.655)"/><path class="g" d="M394.626,547.291s-26.533-4.957-28.283,3.79,29.449,4.957,29.449,4.957Z" transform="translate(-240.986 -373.633)"/><path class="d" d="M417.645,428.775s63.563,50.734,51.9,62.98-55.982,8.747-55.982,8.747l2.916-14.579,25.658-2.916-12.829-12.829-11.663,1.166Z" transform="translate(-264.588 -315.181)"/><path class="g" d="M234.28,589.446l8.164,6.415s5.831,18.078,14.579,12.829-8.164-23.909-8.164-23.909l-9.914-3.5Z" transform="translate(-175.11 -391.295)"/><path class="d" d="M183.489,410.148l-8.142,2.45s-56.588,41.869-58.92,53.532,11.08,18.078,11.08,18.078l50.734,23.909,5.248-14L159.58,481.875s1.749-3.5-5.248-4.082-8.164-8.164-8.164-8.164,14-21.576,21.576-16.911,9.914,8.164,9.914,8.164Z" transform="translate(-116.155 -305.884)"/><path class="b" d="M330.621,620.874v1.953a4.292,4.292,0,0,1-.293,1.567,4.4,4.4,0,0,1-.312.644,4.324,4.324,0,0,1-3.717,2.111H182.594a4.324,4.324,0,0,1-3.717-2.111,4.4,4.4,0,0,1-.312-.644,4.293,4.293,0,0,1-.293-1.567v-1.953a4.321,4.321,0,0,1,4.322-4.322h8.283v-.911a.18.18,0,0,1,.18-.18h4.322a.18.18,0,0,1,.18.18v.911h2.7v-.911a.18.18,0,0,1,.18-.18h4.322a.18.18,0,0,1,.18.18v.911h2.7v-.911a.18.18,0,0,1,.18-.18h4.322a.18.18,0,0,1,.18.18v.911h2.7v-.911a.18.18,0,0,1,.18-.18h4.322a.18.18,0,0,1,.18.18v.911h2.7v-.911a.18.18,0,0,1,.18-.18h4.322a.18.18,0,0,1,.18.18v.911h2.7v-.911a.18.18,0,0,1,.18-.18H232.3a.18.18,0,0,1,.18.18v.911h2.7v-.911a.18.18,0,0,1,.18-.18h33.855a.18.18,0,0,1,.18.18v.911h2.7v-.911a.18.18,0,0,1,.18-.18H276.6a.182.182,0,0,1,.18.18v.911h2.7v-.911a.18.18,0,0,1,.18-.18h4.322a.18.18,0,0,1,.18.18v.911h2.7v-.911a.18.18,0,0,1,.18-.18h4.322a.18.18,0,0,1,.18.18v.911h2.7v-.911a.18.18,0,0,1,.18-.18h4.322a.179.179,0,0,1,.177.18v.911h2.7v-.911a.18.18,0,0,1,.18-.18h4.322a.18.18,0,0,1,.18.18v.911h2.7v-.911a.18.18,0,0,1,.18-.18h4.322a.18.18,0,0,1,.18.18v.911H326.3a4.321,4.321,0,0,1,4.322,4.322Z" transform="translate(-147.156 -408.354)"/><path class="b" d="M324.548,460.934H270.985v-1.1H246.7v1.1H192.913a3.623,3.623,0,0,0-3.623,3.623V537.9a3.623,3.623,0,0,0,3.623,3.623H324.548a3.623,3.623,0,0,0,3.623-3.623V464.557a3.623,3.623,0,0,0-3.623-3.623Z" transform="translate(-152.655 -330.68)"/><circle class="f" cx="8.045" cy="8.045" r="8.045" transform="translate(98.135 147.815)"/><circle class="d" cx="8.045" cy="8.045" r="8.045" transform="translate(95.561 150.711)"/><rect class="b" width="475.865" height="1.002" transform="translate(5.934 216.393)"/></g></svg>